Coordinates
version=1
nRows=32
nColumns=22
inDegrees=yes

Units are S.I. units (second, meters, Newtons, ...)
If the header above contains a line with 'inDegrees', this indicates whether rotational values are in degrees (yes) or radians (no).

endheader
time	pelvis_tilt	pelvis_list	pelvis_rotation	pelvis_tx	pelvis_ty	pelvis_tz	hip_flexion_r	hip_adduction_r	hip_rotation_r	knee_angle_r	ankle_angle_r	subtalar_angle_r	hip_flexion_l	hip_adduction_l	hip_rotation_l	knee_angle_l	ankle_angle_l	subtalar_angle_l	lumbar_extension	lumbar_bending	lumbar_rotation
      1.40000000	     -1.84003193	      2.40082906	      3.14485102	     -1.12000572	      1.06318017	     -0.61967095	     23.43790729	     -2.99308291	      2.92675925	    -51.63340058	      8.95004018	      3.19360998	     -1.67208242	      5.86656382	      1.34969241	    -11.75395346	     16.17945182	     -4.57039692	     -6.15304641	     -4.57018619	     -7.25471600
      1.41000000	     -1.86358749	      2.28460867	      3.21818297	     -1.11782950	      1.06301208	     -0.61995466	     24.16951005	     -2.76080905	      2.90518110	    -51.98377982	      9.10597210	      2.97296779	     -1.76142525	      5.74770136	      1.37713751	    -11.77533326	     16.26815241	     -4.61407933	     -6.26289714	     -4.44448706	     -7.37474826
      1.42000000	     -1.88954972	      2.17345482	      3.28350351	     -1.11550842	      1.06281663	     -0.62023512	     24.85329675	     -2.56844722	      2.81971120	    -52.12779080	      9.31162623	      2.71724389	     -1.85954214	      5.63580016	      1.40160483	    -11.79119174	     16.35598196	     -4.66195935	     -6.36363072	     -4.32157174	     -7.47975611
      1.43000000	     -1.91414405	      2.06950080	      3.33744472	     -1.11304100	      1.06259391	     -0.62051558	     25.48383491	     -2.41968542	      2.67400875	    -52.06860584	      9.55503664	      2.43397046	     -1.96897979	      5.53288777	      1.41701407	    -11.80411075	     16.45002621	     -4.70340081	     -6.46052586	     -4.20266402	     -7.56991938
      1.44000000	     -1.94291951	      1.97730212	      3.37765064	     -1.11042216	      1.06233199	     -0.62078964	     26.06635152	     -2.31872483	      2.47239359	    -51.81307049	      9.81975994	      2.10330346	     -2.08413128	      5.44388268	      1.41879335	    -11.81316825	     16.55561071	     -4.72639874	     -6.54644618	     -4.09375870	     -7.64613653
      1.45000000	     -1.97670172	      1.90573019	      3.39367071	     -1.10764504	      1.06202691	     -0.62103748	     26.60302322	     -2.26834324	      2.22644332	    -51.37069611	     10.09605363	      1.67847358	     -2.21009307	      5.37827923	      1.40781510	    -11.80872067	     16.65376391	     -4.70883739	     -6.62002916	     -4.00928242	     -7.68467881
      1.46000000	     -2.01058618	      1.82924280	      3.40680052	     -1.10472430	      1.06167835	     -0.62128429	     27.08602622	     -2.24924643	      1.91207162	    -50.74743783	     10.36084151	      1.34044270	     -2.33316481	      5.30495067	      1.36245566	    -11.82111079	     16.82190875	     -4.67072636	     -6.68883562	     -3.91270067	     -7.74225952
      1.47000000	     -2.05661026	      1.76717965	      3.40188686	     -1.10165956	      1.06127028	     -0.62149960	     27.53146054	     -2.26929575	      1.54620359	    -49.95679012	     10.61153413	      0.90635209	     -2.45418205	      5.24682411	      1.30180338	    -11.82708136	     16.99582497	     -4.58126430	     -6.74053368	     -3.83391160	     -7.76969799
      1.48000000	     -2.10676560	      1.71162905	      3.37336786	     -1.09843478	      1.06081113	     -0.62165744	     27.93220117	     -2.31319955	      1.12637853	    -49.01089869	     10.83592008	      0.50420739	     -2.58143536	      5.19402265	      1.21683042	    -11.83013461	     17.18948548	     -4.47055933	     -6.78018105	     -3.76519580	     -7.78209052
      1.49000000	     -2.16358705	      1.65678675	      3.33565220	     -1.09507243	      1.06029928	     -0.62178885	     28.29044519	     -2.37618669	      0.64104775	    -47.91977850	     11.02029805	      0.10201389	     -2.71107391	      5.14012893	      1.11563946	    -11.82895052	     17.40305809	     -4.33899421	     -6.81138427	     -3.69428135	     -7.78326383
      1.50000000	     -2.21090860	      1.61696426	      3.27113662	     -1.09154148	      1.05975566	     -0.62183646	     28.59033305	     -2.45744016	      0.10005720	    -46.69851385	     11.18430374	     -0.36686862	     -2.86734009	      5.09911624	      0.99890456	    -11.81798290	     17.59706173	     -4.16309069	     -6.84809960	     -3.64690153	     -7.75787881
      1.51000000	     -2.26865133	      1.54581261	      3.21288596	     -1.08787559	      1.05915395	     -0.62185162	     28.85176049	     -2.52208217	     -0.53592507	    -45.35318702	     11.27622149	     -0.69413132	     -3.01172179	      5.02333406	      0.89364607	    -11.82417373	     17.83693203	     -4.04983792	     -6.87070444	     -3.56088739	     -7.74135508
      1.52000000	     -2.32064330	      1.47072781	      3.14080906	     -1.08403179	      1.05851822	     -0.62177922	     29.05757502	     -2.57657635	     -1.23266366	    -43.89696168	     11.31554120	     -1.01042754	     -3.18241662	      4.93961177	      0.78502593	    -11.81345984	     18.07888858	     -3.94901163	     -6.89322463	     -3.47306510	     -7.73681160
      1.53000000	     -2.35079390	      1.38470869	      3.06203570	     -1.08000750	      1.05787607	     -0.62162137	     29.18801425	     -2.61067589	     -1.99895385	    -42.33674215	     11.32813453	     -1.33791879	     -3.38807178	      4.83907994	      0.67273668	    -11.80165928	     18.29855971	     -3.85341723	     -6.93503150	     -3.37600409	     -7.73325710
      1.54000000	     -2.41402065	      1.27323623	      2.98029941	     -1.07584197	      1.05714081	     -0.62137277	     29.31283794	     -2.60369226	     -2.81362734	    -40.69306233	     11.24366056	     -1.50513652	     -3.55973866	      4.70980174	      0.56433378	    -11.80367232	     18.55691631	     -3.82863645	     -6.93559901	     -3.25441269	     -7.74628061
      1.55000000	     -2.41111363	      1.14666942	      2.90138348	     -1.07150484	      1.05648140	     -0.62104988	     29.30778247	     -2.56250460	     -3.69445529	    -38.95022166	     11.13219215	     -1.75319446	     -3.80482037	      4.55676425	      0.46013750	    -11.81826665	     18.76218359	     -3.78104933	     -7.01387492	     -3.11360014	     -7.75326152
      1.56000000	     -2.46109421	      0.99699604	      2.81369076	     -1.06704494	      1.05569394	     -0.62061661	     29.32725979	     -2.46759712	     -4.58715436	    -37.15408772	     10.93613326	     -1.86318704	     -3.98996421	      4.37842652	      0.35487521	    -11.85501863	     19.03182994	     -3.79158237	     -7.02961863	     -2.95417091	     -7.76516155
      1.57000000	     -2.47397182	      0.82407283	      2.72300835	     -1.06243203	      1.05495064	     -0.62007782	     29.25378698	     -2.31224134	     -5.49535023	    -35.28033087	     10.70066972	     -1.99410626	     -4.21630725	      4.16738886	      0.23126759	    -11.90170585	     19.23428744	     -3.80137719	     -7.09078472	     -2.76829106	     -7.77946927
      1.58000000	     -2.54317126	      0.63428834	      2.61715542	     -1.05771802	      1.05406919	     -0.61942656	     29.21559426	     -2.09973137	     -6.37572390	    -33.37975824	     10.43014970	     -2.04479290	     -4.37401688	      3.93867896	      0.10041578	    -11.97997429	     19.50987714	     -3.85509245	     -7.08872010	     -2.57004551	     -7.77568963
      1.59000000	     -2.65337663	      0.42870711	      2.49248585	     -1.05290856	      1.05310968	     -0.61863057	     29.18392310	     -1.81452743	     -7.17221922	    -31.43422685	     10.12003355	     -2.06065309	     -4.48019744	      3.68945868	     -0.05635963	    -12.08426605	     19.74271919	     -3.92622861	     -7.04120064	     -2.36070889	     -7.77917196
      1.60000000	     -2.66161825	      0.18860096	      2.37762010	     -1.04791403	      1.05228186	     -0.61776556	     28.99259458	     -1.46967771	     -7.99911498	    -29.44523532	      9.86636762	     -2.12627656	     -4.71381194	      3.39412111	     -0.18552889	    -12.17502098	     19.96856488	     -4.01978692	     -7.11254398	     -2.11126000	     -7.75366652
      1.61000000	     -2.82326342	     -0.03932521	      2.21413997	     -1.04285433	      1.05117250	     -0.61675132	     28.96614098	     -1.08344384	     -8.68894935	    -27.48760966	      9.57525070	     -2.10087254	     -4.77627233	      3.11557911	     -0.38341651	    -12.29372335	     20.21754442	     -4.12469228	     -7.00159946	     -1.88420130	     -7.70766757
      1.62000000	     -2.85211382	     -0.31137552	      2.07999477	     -1.03763482	      1.05026362	     -0.61566683	     28.73056780	     -0.62416537	     -9.34049126	    -25.47225649	      9.36617008	     -2.09245475	     -4.98771855	      2.77633304	     -0.52209183	    -12.41988309	     20.46300432	     -4.24332282	     -7.04853932	     -1.60297057	     -7.68364031
      1.63000000	     -2.99651423	     -0.57262904	      1.92240260	     -1.03236114	      1.04913391	     -0.61447899	     28.61744622	     -0.14867525	     -9.88958440	    -23.50954599	      9.15613980	     -2.02032102	     -5.04904165	      2.44669641	     -0.71970264	    -12.61192662	     20.75164667	     -4.32989678	     -6.96214449	     -1.34204931	     -7.63217116
      1.64000000	     -3.10135738	     -0.85300665	      1.77138393	     -1.02689335	      1.04806115	     -0.61321654	     28.42058315	      0.36222089	    -10.38824316	    -21.55709214	      9.00381495	     -1.90680117	     -5.18106710	      2.08775368	     -0.90296790	    -12.77434912	     21.02231146	     -4.35013330	     -6.91142623	     -1.05874093	     -7.60006941
      1.65000000	     -3.24543343	     -1.12889177	      1.62180695	     -1.02132697	      1.04690835	     -0.61188375	     28.25146278	      0.87417963	    -10.83466894	    -19.66777770	      8.87450779	     -1.76184724	     -5.25880191	      1.72679807	     -1.09562407	    -12.97928404	     21.29536949	     -4.31480998	     -6.81561332	     -0.78595857	     -7.55132178
      1.66000000	     -3.36777665	     -1.40466862	      1.48505088	     -1.01556923	      1.04578611	     -0.61052461	     28.03438766	      1.38165487	    -11.26327193	    -17.84935215	      8.79239834	     -1.56888545	     -5.38731845	      1.35957911	     -1.27773109	    -13.15550588	     21.55525447	     -4.18165360	     -6.73554133	     -0.50502326	     -7.53447875
      1.67000000	     -3.50089979	     -1.66296942	      1.36775089	     -1.00970983	      1.04463390	     -0.60914603	     27.82659039	      1.85701434	    -11.69287762	    -16.15227098	      8.73795151	     -1.36668441	     -5.48751877	      1.00409945	     -1.45133275	    -13.38080812	     21.80012044	     -4.00721640	     -6.64717299	     -0.24318188	     -7.51799474
      1.68000000	     -3.62433732	     -1.90673439	      1.26436130	     -1.00364991	      1.04350036	     -0.60776574	     27.60556496	      2.30033196	    -12.14701513	    -14.60322556	      8.70574848	     -1.15296634	     -5.62596367	      0.66037772	     -1.60703405	    -13.57594116	     22.01411819	     -3.76728643	     -6.55851347	      0.01546417	     -7.53229438
      1.69000000	     -3.73319911	     -2.12877000	      1.18209327	     -0.99742710	      1.04239157	     -0.60635849	     27.38398733	      2.70021105	    -12.64684121	    -13.25263183	      8.68545083	     -0.95764904	     -5.78130822	      0.33263560	     -1.74668124	    -13.78737882	     22.19629451	     -3.48947569	     -6.48469512	      0.25174205	     -7.55993532
      1.70000000	     -3.82333303	     -2.32905186	      1.11039081	     -0.99100817	      1.04132674	     -0.60493659	     27.16485864	      3.05645869	    -13.19530728	    -12.13619490	      8.65351125	     -0.80608428	     -5.96761559	      0.02486387	     -1.87153662	    -13.99952872	     22.33520820	     -3.17435426	     -6.42503805	      0.47324783	     -7.59593675
      1.71000000	     -3.89576792	     -2.50518720	      1.05436854	     -0.98440579	      1.04030693	     -0.60349760	     26.96089800	      3.36224381	    -13.79539916	    -11.29193048	      8.60576688	     -0.74121352	     -6.17168559	     -0.26194612	     -1.98183839	    -14.23230581	     22.44188262	     -2.85582759	     -6.37972328	      0.67685327	     -7.64699147
